<mxfile host="app.diagrams.net" modified="2022-05-17T09:03:25.467Z" agent="5.0 (Windows NT 10.0; Win64; x64) AppleWebKit/537.36 (KHTML, like Gecko) Chrome/97.0.4692.99 Safari/537.36" etag="p6Sy8sLu8TeMj3l1QC3W" version="18.0.5" type="github">
  <diagram id="C5RBs43oDa-KdzZeNtuy" name="Page-1">
    <mxGraphModel dx="1038" dy="523" grid="1" gridSize="10" guides="1" tooltips="1" connect="1" arrows="1" fold="1" page="1" pageScale="1" pageWidth="827" pageHeight="1169" math="1" shadow="0">
      <root>
        <mxCell id="WIyWlLk6GJQsqaUBKTNV-0" />
        <mxCell id="WIyWlLk6GJQsqaUBKTNV-1" parent="WIyWlLk6GJQsqaUBKTNV-0" />
        <mxCell id="OF5JQLe1hR8GckaHJqry-23" value="" style="edgeStyle=orthogonalEdgeStyle;rounded=0;orthogonalLoop=1;jettySize=auto;html=1;fontFamily=Times New Roman;fontSize=13;sketch=1;" edge="1" parent="WIyWlLk6GJQsqaUBKTNV-1" source="OF5JQLe1hR8GckaHJqry-1" target="OF5JQLe1hR8GckaHJqry-3">
          <mxGeometry relative="1" as="geometry" />
        </mxCell>
        <mxCell id="OF5JQLe1hR8GckaHJqry-1" value="开始" style="rounded=1;whiteSpace=wrap;html=1;fontSize=12;glass=0;strokeWidth=1;shadow=0;sketch=1;fillColor=#F5AB50;strokeColor=#909090;fontColor=#1A1A1A;" vertex="1" parent="WIyWlLk6GJQsqaUBKTNV-1">
          <mxGeometry x="175" y="93" width="90" height="40" as="geometry" />
        </mxCell>
        <mxCell id="OF5JQLe1hR8GckaHJqry-29" style="edgeStyle=orthogonalEdgeStyle;rounded=0;orthogonalLoop=1;jettySize=auto;html=1;entryX=0.5;entryY=0;entryDx=0;entryDy=0;fontFamily=Times New Roman;fontSize=13;sketch=1;" edge="1" parent="WIyWlLk6GJQsqaUBKTNV-1" source="OF5JQLe1hR8GckaHJqry-3" target="OF5JQLe1hR8GckaHJqry-13">
          <mxGeometry relative="1" as="geometry" />
        </mxCell>
        <mxCell id="OF5JQLe1hR8GckaHJqry-3" value="$$D,F,L,N,t_{max}$$" style="shape=parallelogram;perimeter=parallelogramPerimeter;whiteSpace=wrap;html=1;fixedSize=1;rounded=0;sketch=1;fontColor=#1A1A1A;strokeColor=#909090;fillColor=#F5AB50;" vertex="1" parent="WIyWlLk6GJQsqaUBKTNV-1">
          <mxGeometry x="150" y="173" width="140" height="40" as="geometry" />
        </mxCell>
        <mxCell id="OF5JQLe1hR8GckaHJqry-31" style="edgeStyle=orthogonalEdgeStyle;rounded=0;orthogonalLoop=1;jettySize=auto;html=1;entryX=0.5;entryY=0;entryDx=0;entryDy=0;fontFamily=Times New Roman;fontSize=13;sketch=1;" edge="1" parent="WIyWlLk6GJQsqaUBKTNV-1" source="OF5JQLe1hR8GckaHJqry-8" target="OF5JQLe1hR8GckaHJqry-20">
          <mxGeometry relative="1" as="geometry" />
        </mxCell>
        <mxCell id="OF5JQLe1hR8GckaHJqry-8" value="基于&lt;i style=&quot;font-size: 13px;&quot;&gt;&lt;font style=&quot;font-size: 13px;&quot; face=&quot;Times New Roman&quot;&gt;D&lt;sub&gt;tra&lt;/sub&gt;&lt;/font&gt;&lt;/i&gt;，利用改进BRFS训练N个基分类器&lt;br&gt;$${\small C=\left \{ c_{1},\cdots,c_{N} \right \} }&amp;nbsp;$$" style="shape=process;whiteSpace=wrap;html=1;backgroundOutline=1;rounded=0;sketch=1;fontColor=#1A1A1A;strokeColor=#909090;fillColor=#F5AB50;" vertex="1" parent="WIyWlLk6GJQsqaUBKTNV-1">
          <mxGeometry x="61.25" y="357" width="317.5" height="70" as="geometry" />
        </mxCell>
        <mxCell id="OF5JQLe1hR8GckaHJqry-30" style="edgeStyle=orthogonalEdgeStyle;rounded=0;orthogonalLoop=1;jettySize=auto;html=1;entryX=0.5;entryY=0;entryDx=0;entryDy=0;fontFamily=Times New Roman;fontSize=13;sketch=1;" edge="1" parent="WIyWlLk6GJQsqaUBKTNV-1" source="OF5JQLe1hR8GckaHJqry-13" target="OF5JQLe1hR8GckaHJqry-8">
          <mxGeometry relative="1" as="geometry" />
        </mxCell>
        <mxCell id="OF5JQLe1hR8GckaHJqry-13" value="将&lt;i&gt;&lt;font face=&quot;Times New Roman&quot; style=&quot;font-size: 14px;&quot;&gt;D&lt;/font&gt;&lt;/i&gt;划分成&lt;br&gt;&lt;i style=&quot;font-size: 13px;&quot;&gt;&lt;font style=&quot;font-size: 13px;&quot; face=&quot;Times New Roman&quot;&gt;D&lt;sub&gt;tra，&lt;/sub&gt;D&lt;sub&gt;val，&lt;/sub&gt;D&lt;sub&gt;tes&lt;/sub&gt;&lt;/font&gt;&lt;/i&gt;" style="whiteSpace=wrap;html=1;rounded=0;fontColor=#1A1A1A;strokeColor=#909090;fillColor=#F5AB50;sketch=1;" vertex="1" parent="WIyWlLk6GJQsqaUBKTNV-1">
          <mxGeometry x="135" y="253" width="170" height="60" as="geometry" />
        </mxCell>
        <mxCell id="OF5JQLe1hR8GckaHJqry-38" style="edgeStyle=orthogonalEdgeStyle;rounded=0;orthogonalLoop=1;jettySize=auto;html=1;entryX=0.5;entryY=0;entryDx=0;entryDy=0;fontFamily=Times New Roman;fontSize=13;sketch=1;" edge="1" parent="WIyWlLk6GJQsqaUBKTNV-1" source="OF5JQLe1hR8GckaHJqry-15" target="OF5JQLe1hR8GckaHJqry-18">
          <mxGeometry relative="1" as="geometry" />
        </mxCell>
        <mxCell id="OF5JQLe1hR8GckaHJqry-15" value="选择性集成结果" style="shape=parallelogram;perimeter=parallelogramPerimeter;whiteSpace=wrap;html=1;fixedSize=1;rounded=0;sketch=1;fontColor=#1A1A1A;strokeColor=#909090;fillColor=#F5AB50;" vertex="1" parent="WIyWlLk6GJQsqaUBKTNV-1">
          <mxGeometry x="730" y="230" width="140" height="40" as="geometry" />
        </mxCell>
        <mxCell id="OF5JQLe1hR8GckaHJqry-18" value="结束" style="rounded=1;whiteSpace=wrap;html=1;fontSize=12;glass=0;strokeWidth=1;shadow=0;sketch=1;fillColor=#F5AB50;strokeColor=#909090;fontColor=#1A1A1A;" vertex="1" parent="WIyWlLk6GJQsqaUBKTNV-1">
          <mxGeometry x="755" y="317" width="90" height="40" as="geometry" />
        </mxCell>
        <mxCell id="OF5JQLe1hR8GckaHJqry-37" style="edgeStyle=orthogonalEdgeStyle;rounded=0;orthogonalLoop=1;jettySize=auto;html=1;entryX=0.5;entryY=0;entryDx=0;entryDy=0;fontFamily=Times New Roman;fontSize=13;sketch=1;" edge="1" parent="WIyWlLk6GJQsqaUBKTNV-1" source="OF5JQLe1hR8GckaHJqry-19" target="OF5JQLe1hR8GckaHJqry-15">
          <mxGeometry relative="1" as="geometry" />
        </mxCell>
        <mxCell id="OF5JQLe1hR8GckaHJqry-19" value="通过多数投票法集成M中个体的分类结果" style="shape=process;whiteSpace=wrap;html=1;backgroundOutline=1;rounded=0;sketch=1;fontColor=#1A1A1A;strokeColor=#909090;fillColor=#F5AB50;" vertex="1" parent="WIyWlLk6GJQsqaUBKTNV-1">
          <mxGeometry x="725" y="120" width="150" height="60" as="geometry" />
        </mxCell>
        <mxCell id="OF5JQLe1hR8GckaHJqry-32" style="edgeStyle=orthogonalEdgeStyle;rounded=0;orthogonalLoop=1;jettySize=auto;html=1;entryX=0;entryY=0.5;entryDx=0;entryDy=0;fontFamily=Times New Roman;fontSize=13;sketch=1;" edge="1" parent="WIyWlLk6GJQsqaUBKTNV-1" source="OF5JQLe1hR8GckaHJqry-20" target="OF5JQLe1hR8GckaHJqry-24">
          <mxGeometry relative="1" as="geometry" />
        </mxCell>
        <mxCell id="OF5JQLe1hR8GckaHJqry-20" value="&lt;br&gt;对&lt;i style=&quot;font-size: 13px;&quot;&gt;&lt;font face=&quot;Times New Roman&quot;&gt;D&lt;sub&gt;val&lt;/sub&gt;&lt;/font&gt;&lt;/i&gt;和&lt;i style=&quot;font-size: 13px;&quot;&gt;&lt;font face=&quot;Times New Roman&quot;&gt;D&lt;sub&gt;tes&lt;/sub&gt;&lt;/font&gt;&lt;/i&gt;分类，记作&lt;br&gt;$${\small PL_{val}=\left \{ pl_{1},\cdots,pl_{N} \right \} },PL_{tes}$$" style="shape=process;whiteSpace=wrap;html=1;backgroundOutline=1;rounded=0;sketch=1;fontColor=#1A1A1A;strokeColor=#909090;fillColor=#F5AB50;" vertex="1" parent="WIyWlLk6GJQsqaUBKTNV-1">
          <mxGeometry x="61.25" y="474" width="317.5" height="70" as="geometry" />
        </mxCell>
        <mxCell id="OF5JQLe1hR8GckaHJqry-33" style="edgeStyle=orthogonalEdgeStyle;rounded=0;orthogonalLoop=1;jettySize=auto;html=1;entryX=0.5;entryY=0;entryDx=0;entryDy=0;fontFamily=Times New Roman;fontSize=13;sketch=1;" edge="1" parent="WIyWlLk6GJQsqaUBKTNV-1" source="OF5JQLe1hR8GckaHJqry-24" target="OF5JQLe1hR8GckaHJqry-27">
          <mxGeometry relative="1" as="geometry" />
        </mxCell>
        <mxCell id="OF5JQLe1hR8GckaHJqry-24" value="基于APC算法将基分类器划分成簇" style="shape=process;whiteSpace=wrap;html=1;backgroundOutline=1;rounded=0;sketch=1;fontColor=#1A1A1A;strokeColor=#909090;fillColor=#F5AB50;" vertex="1" parent="WIyWlLk6GJQsqaUBKTNV-1">
          <mxGeometry x="470" y="120" width="170" height="60" as="geometry" />
        </mxCell>
        <mxCell id="OF5JQLe1hR8GckaHJqry-35" style="edgeStyle=orthogonalEdgeStyle;rounded=0;orthogonalLoop=1;jettySize=auto;html=1;entryX=0.5;entryY=0;entryDx=0;entryDy=0;fontFamily=Times New Roman;fontSize=13;sketch=1;" edge="1" parent="WIyWlLk6GJQsqaUBKTNV-1" source="OF5JQLe1hR8GckaHJqry-25" target="OF5JQLe1hR8GckaHJqry-28">
          <mxGeometry relative="1" as="geometry" />
        </mxCell>
        <mxCell id="OF5JQLe1hR8GckaHJqry-25" value="基于mRMRMC算法从各簇中选择部分基分类器" style="shape=process;whiteSpace=wrap;html=1;backgroundOutline=1;rounded=0;sketch=1;fontColor=#1A1A1A;strokeColor=#909090;fillColor=#F5AB50;" vertex="1" parent="WIyWlLk6GJQsqaUBKTNV-1">
          <mxGeometry x="470" y="330" width="170" height="60" as="geometry" />
        </mxCell>
        <mxCell id="OF5JQLe1hR8GckaHJqry-34" style="edgeStyle=orthogonalEdgeStyle;rounded=0;orthogonalLoop=1;jettySize=auto;html=1;entryX=0.5;entryY=0;entryDx=0;entryDy=0;fontFamily=Times New Roman;fontSize=13;sketch=1;" edge="1" parent="WIyWlLk6GJQsqaUBKTNV-1" source="OF5JQLe1hR8GckaHJqry-27" target="OF5JQLe1hR8GckaHJqry-25">
          <mxGeometry relative="1" as="geometry" />
        </mxCell>
        <mxCell id="OF5JQLe1hR8GckaHJqry-27" value="$$聚簇A=\left \{ A_{1},\cdots,A_{m} \right \}&amp;nbsp;$$" style="whiteSpace=wrap;html=1;rounded=0;fontColor=#1A1A1A;strokeColor=#909090;fillColor=#F5AB50;sketch=1;" vertex="1" parent="WIyWlLk6GJQsqaUBKTNV-1">
          <mxGeometry x="470" y="230" width="170" height="60" as="geometry" />
        </mxCell>
        <mxCell id="OF5JQLe1hR8GckaHJqry-36" style="edgeStyle=orthogonalEdgeStyle;rounded=0;orthogonalLoop=1;jettySize=auto;html=1;exitX=1;exitY=0.5;exitDx=0;exitDy=0;entryX=0;entryY=0.5;entryDx=0;entryDy=0;fontFamily=Times New Roman;fontSize=13;sketch=1;" edge="1" parent="WIyWlLk6GJQsqaUBKTNV-1" source="OF5JQLe1hR8GckaHJqry-28" target="OF5JQLe1hR8GckaHJqry-19">
          <mxGeometry relative="1" as="geometry" />
        </mxCell>
        <mxCell id="OF5JQLe1hR8GckaHJqry-28" value="$$M=\left \{ M_{1},\cdots,M_{m} \right \}&amp;nbsp;$$" style="whiteSpace=wrap;html=1;rounded=0;fontColor=#1A1A1A;strokeColor=#909090;fillColor=#F5AB50;sketch=1;" vertex="1" parent="WIyWlLk6GJQsqaUBKTNV-1">
          <mxGeometry x="470" y="440" width="170" height="60" as="geometry" />
        </mxCell>
      </root>
    </mxGraphModel>
  </diagram>
</mxfile>
